<svg width="22" height="23" viewBox="0 0 22 23" fill="none" xmlns="http://www.w3.org/2000/svg">
<path d="M13.1313 0.00270194L5.25021 0.00270125L5.25021 1.33596L13.1313 1.33596C17.2951 1.33596 20.684 4.77576 20.684 9.00218C20.684 13.2286 17.2951 16.6684 13.1313 16.6684L2.23833 16.6684L6.04423 12.8053C6.30077 12.5449 6.30077 12.1217 6.04423 11.8626C5.91596 11.7324 5.7492 11.666 5.58115 11.666C5.41311 11.666 5.24637 11.7324 5.11807 11.8626L0.192406 16.8623C-0.0641379 17.1227 -0.0641379 17.5459 0.192406 17.805L5.11807 22.8047C5.37462 23.0651 5.79151 23.0651 6.04675 22.8047C6.3033 22.5443 6.3033 22.1211 6.04675 21.8621L2.24086 17.9989L13.1338 17.9989C18.0237 17.9989 22 13.9629 22 8.99948C22 4.0361 18.0237 1.55973e-06 13.1338 1.13224e-06L13.1313 0.00270194Z" fill="white"/>
</svg>
